M48
; DRILL file {KiCad (6.0.0)} date Thu Dec 15 21:07:09 2022
; FORMAT={-:-/ absolute / inch / decimal}
; #@! TF.CreationDate,2022-12-15T21:07:09-05:00
; #@! TF.GenerationSoftware,Kicad,Pcbnew,(6.0.0)
; #@! TF.FileFunction,Plated,1,2,PTH
FMAT,2
INCH
; #@! TA.AperFunction,Plated,PTH,ComponentDrill
T1C0.0374
; #@! TA.AperFunction,Plated,PTH,ComponentDrill
T2C0.0394
%
G90
G05
T1
X5.1516Y-2.8493
X5.1516Y-3.1543
X5.25Y-2.8493
X5.25Y-3.1543
X5.3484Y-2.8493
X5.3484Y-3.1543
T2
X5.0Y-2.8
X5.0Y-2.9
X5.0Y-3.0
X5.0Y-3.1
X5.0Y-3.2
X5.0Y-3.3
X5.0Y-3.4
X5.0Y-3.5
X5.2008Y-3.4457
X5.2992Y-3.4457
X5.5Y-2.8
X5.5Y-2.9
X5.5Y-3.0
X5.5Y-3.1
X5.5Y-3.2
X5.5Y-3.3
X5.5Y-3.4
X5.5Y-3.5
T0
M30
