%TF.GenerationSoftware,KiCad,Pcbnew,(6.0.0)*%
%TF.CreationDate,2022-12-15T21:07:09-05:00*%
%TF.ProjectId,Stepstick_Pixel,53746570-7374-4696-936b-5f506978656c,rev?*%
%TF.SameCoordinates,Original*%
%TF.FileFunction,Legend,Top*%
%TF.FilePolarity,Positive*%
%FSLAX46Y46*%
G04 Gerber Fmt 4.6, Leading zero omitted, Abs format (unit mm)*
G04 Created by KiCad (PCBNEW (6.0.0)) date 2022-12-15 21:07:09*
%MOMM*%
%LPD*%
G01*
G04 APERTURE LIST*
%ADD10C,0.100000*%
%ADD11C,0.150000*%
%ADD12C,0.200000*%
%ADD13C,0.120000*%
G04 APERTURE END LIST*
D10*
X136390000Y-76884309D02*
X136390000Y-77384309D01*
X136270952Y-77384309D01*
X136199523Y-77360500D01*
X136151904Y-77312880D01*
X136128095Y-77265261D01*
X136104285Y-77170023D01*
X136104285Y-77098595D01*
X136128095Y-77003357D01*
X136151904Y-76955738D01*
X136199523Y-76908119D01*
X136270952Y-76884309D01*
X136390000Y-76884309D01*
X135890000Y-76884309D02*
X135890000Y-77384309D01*
X135366190Y-76884309D02*
X135532857Y-77122404D01*
X135651904Y-76884309D02*
X135651904Y-77384309D01*
X135461428Y-77384309D01*
X135413809Y-77360500D01*
X135390000Y-77336690D01*
X135366190Y-77289071D01*
X135366190Y-77217642D01*
X135390000Y-77170023D01*
X135413809Y-77146214D01*
X135461428Y-77122404D01*
X135651904Y-77122404D01*
X136699523Y-76103119D02*
X136628095Y-76079309D01*
X136509047Y-76079309D01*
X136461428Y-76103119D01*
X136437619Y-76126928D01*
X136413809Y-76174547D01*
X136413809Y-76222166D01*
X136437619Y-76269785D01*
X136461428Y-76293595D01*
X136509047Y-76317404D01*
X136604285Y-76341214D01*
X136651904Y-76365023D01*
X136675714Y-76388833D01*
X136699523Y-76436452D01*
X136699523Y-76484071D01*
X136675714Y-76531690D01*
X136651904Y-76555500D01*
X136604285Y-76579309D01*
X136485238Y-76579309D01*
X136413809Y-76555500D01*
X136270952Y-76579309D02*
X135985238Y-76579309D01*
X136128095Y-76079309D02*
X136128095Y-76579309D01*
X135818571Y-76341214D02*
X135651904Y-76341214D01*
X135580476Y-76079309D02*
X135818571Y-76079309D01*
X135818571Y-76579309D01*
X135580476Y-76579309D01*
X135366190Y-76079309D02*
X135366190Y-76579309D01*
X135175714Y-76579309D01*
X135128095Y-76555500D01*
X135104285Y-76531690D01*
X135080476Y-76484071D01*
X135080476Y-76412642D01*
X135104285Y-76365023D01*
X135128095Y-76341214D01*
X135175714Y-76317404D01*
X135366190Y-76317404D01*
D11*
X133464095Y-77108000D02*
X133540285Y-77146095D01*
X133654571Y-77146095D01*
X133768857Y-77108000D01*
X133845047Y-77031809D01*
X133883142Y-76955619D01*
X133921238Y-76803238D01*
X133921238Y-76688952D01*
X133883142Y-76536571D01*
X133845047Y-76460380D01*
X133768857Y-76384190D01*
X133654571Y-76346095D01*
X133578380Y-76346095D01*
X133464095Y-76384190D01*
X133426000Y-76422285D01*
X133426000Y-76688952D01*
X133578380Y-76688952D01*
X133083142Y-76346095D02*
X133083142Y-77146095D01*
X132626000Y-76346095D01*
X132626000Y-77146095D01*
X132245047Y-76346095D02*
X132245047Y-77146095D01*
X132054571Y-77146095D01*
X131940285Y-77108000D01*
X131864095Y-77031809D01*
X131826000Y-76955619D01*
X131787904Y-76803238D01*
X131787904Y-76688952D01*
X131826000Y-76536571D01*
X131864095Y-76460380D01*
X131940285Y-76384190D01*
X132054571Y-76346095D01*
X132245047Y-76346095D01*
X130454571Y-77146095D02*
X130835523Y-77146095D01*
X130873619Y-76765142D01*
X130835523Y-76803238D01*
X130759333Y-76841333D01*
X130568857Y-76841333D01*
X130492666Y-76803238D01*
X130454571Y-76765142D01*
X130416476Y-76688952D01*
X130416476Y-76498476D01*
X130454571Y-76422285D01*
X130492666Y-76384190D01*
X130568857Y-76346095D01*
X130759333Y-76346095D01*
X130835523Y-76384190D01*
X130873619Y-76422285D01*
X130187904Y-77146095D02*
X129921238Y-76346095D01*
X129654571Y-77146095D01*
D12*
X138422000Y-86233095D02*
X138469619Y-86137857D01*
X138469619Y-85995000D01*
X138422000Y-85852142D01*
X138326761Y-85756904D01*
X138231523Y-85709285D01*
X138041047Y-85661666D01*
X137898190Y-85661666D01*
X137707714Y-85709285D01*
X137612476Y-85756904D01*
X137517238Y-85852142D01*
X137469619Y-85995000D01*
X137469619Y-86090238D01*
X137517238Y-86233095D01*
X137564857Y-86280714D01*
X137898190Y-86280714D01*
X137898190Y-86090238D01*
X137469619Y-86709285D02*
X138469619Y-86709285D01*
X137469619Y-87280714D01*
X138469619Y-87280714D01*
X137469619Y-87756904D02*
X138469619Y-87756904D01*
X138469619Y-87995000D01*
X138422000Y-88137857D01*
X138326761Y-88233095D01*
X138231523Y-88280714D01*
X138041047Y-88328333D01*
X137898190Y-88328333D01*
X137707714Y-88280714D01*
X137612476Y-88233095D01*
X137517238Y-88137857D01*
X137469619Y-87995000D01*
X137469619Y-87756904D01*
X128230380Y-87312476D02*
X128230380Y-87788666D01*
X128706571Y-87836285D01*
X128658952Y-87788666D01*
X128611333Y-87693428D01*
X128611333Y-87455333D01*
X128658952Y-87360095D01*
X128706571Y-87312476D01*
X128801809Y-87264857D01*
X129039904Y-87264857D01*
X129135142Y-87312476D01*
X129182761Y-87360095D01*
X129230380Y-87455333D01*
X129230380Y-87693428D01*
X129182761Y-87788666D01*
X129135142Y-87836285D01*
X128230380Y-86979142D02*
X129230380Y-86645809D01*
X128230380Y-86312476D01*
D11*
%TO.C,J4*%
X133016666Y-81494380D02*
X133016666Y-82208666D01*
X132969047Y-82351523D01*
X132873809Y-82446761D01*
X132730952Y-82494380D01*
X132635714Y-82494380D01*
X133921428Y-81827714D02*
X133921428Y-82494380D01*
X133683333Y-81446761D02*
X133445238Y-82161047D01*
X134064285Y-82161047D01*
%TO.C,U3*%
X132588095Y-87462380D02*
X132588095Y-88271904D01*
X132635714Y-88367142D01*
X132683333Y-88414761D01*
X132778571Y-88462380D01*
X132969047Y-88462380D01*
X133064285Y-88414761D01*
X133111904Y-88367142D01*
X133159523Y-88271904D01*
X133159523Y-87462380D01*
X133540476Y-87462380D02*
X134159523Y-87462380D01*
X133826190Y-87843333D01*
X133969047Y-87843333D01*
X134064285Y-87890952D01*
X134111904Y-87938571D01*
X134159523Y-88033809D01*
X134159523Y-88271904D01*
X134111904Y-88367142D01*
X134064285Y-88414761D01*
X133969047Y-88462380D01*
X133683333Y-88462380D01*
X133588095Y-88414761D01*
X133540476Y-88367142D01*
%TO.C,J5*%
X133016666Y-85050380D02*
X133016666Y-85764666D01*
X132969047Y-85907523D01*
X132873809Y-86002761D01*
X132730952Y-86050380D01*
X132635714Y-86050380D01*
X133969047Y-85050380D02*
X133492857Y-85050380D01*
X133445238Y-85526571D01*
X133492857Y-85478952D01*
X133588095Y-85431333D01*
X133826190Y-85431333D01*
X133921428Y-85478952D01*
X133969047Y-85526571D01*
X134016666Y-85621809D01*
X134016666Y-85859904D01*
X133969047Y-85955142D01*
X133921428Y-86002761D01*
X133826190Y-86050380D01*
X133588095Y-86050380D01*
X133492857Y-86002761D01*
X133445238Y-85955142D01*
%TO.C,J3*%
X133016666Y-73874380D02*
X133016666Y-74588666D01*
X132969047Y-74731523D01*
X132873809Y-74826761D01*
X132730952Y-74874380D01*
X132635714Y-74874380D01*
X133397619Y-73874380D02*
X134016666Y-73874380D01*
X133683333Y-74255333D01*
X133826190Y-74255333D01*
X133921428Y-74302952D01*
X133969047Y-74350571D01*
X134016666Y-74445809D01*
X134016666Y-74683904D01*
X133969047Y-74779142D01*
X133921428Y-74826761D01*
X133826190Y-74874380D01*
X133540476Y-74874380D01*
X133445238Y-74826761D01*
X133397619Y-74779142D01*
D13*
%TO.C,J4*%
X136600000Y-77670000D02*
X136600000Y-78420000D01*
X131600000Y-78420000D02*
X135100000Y-78420000D01*
X128000000Y-77370000D02*
X128000000Y-78620000D01*
X138400000Y-79920000D02*
X137650000Y-79920000D01*
X130100000Y-78420000D02*
X130100000Y-77670000D01*
X128300000Y-79920000D02*
X129050000Y-79920000D01*
X128290000Y-77660000D02*
X128290000Y-83630000D01*
X138400000Y-77670000D02*
X136600000Y-77670000D01*
X128290000Y-83630000D02*
X138410000Y-83630000D01*
X128300000Y-78420000D02*
X130100000Y-78420000D01*
X137650000Y-82870000D02*
X133350000Y-82870000D01*
X137650000Y-79920000D02*
X137650000Y-82870000D01*
X138410000Y-77660000D02*
X128290000Y-77660000D01*
X128300000Y-77670000D02*
X128300000Y-78420000D01*
X135100000Y-78420000D02*
X135100000Y-77670000D01*
X136600000Y-78420000D02*
X138400000Y-78420000D01*
X130100000Y-77670000D02*
X128300000Y-77670000D01*
X138400000Y-78420000D02*
X138400000Y-77670000D01*
X131600000Y-77670000D02*
X131600000Y-78420000D01*
X129050000Y-82870000D02*
X133350000Y-82870000D01*
X129250000Y-77370000D02*
X128000000Y-77370000D01*
X129050000Y-79920000D02*
X129050000Y-82870000D01*
X135100000Y-77670000D02*
X131600000Y-77670000D01*
X138410000Y-83630000D02*
X138410000Y-77660000D01*
%TO.C,U3*%
X140970001Y-70020000D02*
X125730000Y-70020000D01*
X125730000Y-70020000D02*
X125729999Y-90000000D01*
X125729999Y-90000000D02*
X140970000Y-90000000D01*
X140970000Y-90000000D02*
X140970001Y-70020000D01*
%TO.C,J5*%
X130300000Y-84770000D02*
X133350000Y-84770000D01*
X129540000Y-84010000D02*
X129540000Y-89980000D01*
X131350000Y-89220000D02*
X129550000Y-89220000D01*
X136200000Y-90270000D02*
X137450000Y-90270000D01*
X137150000Y-89970000D02*
X137150000Y-89220000D01*
X132850000Y-89970000D02*
X133850000Y-89970000D01*
X129550000Y-89970000D02*
X131350000Y-89970000D01*
X137160000Y-84010000D02*
X129540000Y-84010000D01*
X133850000Y-89220000D02*
X132850000Y-89220000D01*
X131350000Y-89970000D02*
X131350000Y-89220000D01*
X132850000Y-89220000D02*
X132850000Y-89970000D01*
X135350000Y-89220000D02*
X135350000Y-89970000D01*
X133850000Y-89970000D02*
X133850000Y-89220000D01*
X136400000Y-84770000D02*
X133350000Y-84770000D01*
X137450000Y-90270000D02*
X137450000Y-89020000D01*
X130300000Y-87720000D02*
X130300000Y-84770000D01*
X129550000Y-89220000D02*
X129550000Y-89970000D01*
X129540000Y-89980000D02*
X137160000Y-89980000D01*
X137160000Y-89980000D02*
X137160000Y-84010000D01*
X135350000Y-89970000D02*
X137150000Y-89970000D01*
X137150000Y-89220000D02*
X135350000Y-89220000D01*
X129550000Y-87720000D02*
X130300000Y-87720000D01*
X137150000Y-87720000D02*
X136400000Y-87720000D01*
X136400000Y-87720000D02*
X136400000Y-84770000D01*
%TO.C,J3*%
X136600000Y-69923000D02*
X136600000Y-70673000D01*
X138410000Y-75883000D02*
X138410000Y-69913000D01*
X128300000Y-69923000D02*
X128300000Y-70673000D01*
X129050000Y-72173000D02*
X129050000Y-75123000D01*
X131600000Y-70673000D02*
X135100000Y-70673000D01*
X138400000Y-70673000D02*
X138400000Y-69923000D01*
X137650000Y-75123000D02*
X133350000Y-75123000D01*
X128300000Y-70673000D02*
X130100000Y-70673000D01*
X138400000Y-72173000D02*
X137650000Y-72173000D01*
X136600000Y-70673000D02*
X138400000Y-70673000D01*
X138400000Y-69923000D02*
X136600000Y-69923000D01*
X135100000Y-69923000D02*
X131600000Y-69923000D01*
X131600000Y-69923000D02*
X131600000Y-70673000D01*
X128290000Y-69913000D02*
X128290000Y-75883000D01*
X130100000Y-69923000D02*
X128300000Y-69923000D01*
X129250000Y-69623000D02*
X128000000Y-69623000D01*
X130100000Y-70673000D02*
X130100000Y-69923000D01*
X128300000Y-72173000D02*
X129050000Y-72173000D01*
X128290000Y-75883000D02*
X138410000Y-75883000D01*
X129050000Y-75123000D02*
X133350000Y-75123000D01*
X138410000Y-69913000D02*
X128290000Y-69913000D01*
X128000000Y-69623000D02*
X128000000Y-70873000D01*
X137650000Y-72173000D02*
X137650000Y-75123000D01*
X135100000Y-70673000D02*
X135100000Y-69923000D01*
%TD*%
M02*
